<svg width="24" height="28" viewBox="0 0 24 28" fill="none" xmlns="http://www.w3.org/2000/svg">
<path d="M23.4219 21.6533L17.0948 11.8971V4.08184H17.4752C18.185 4.08184 18.7127 3.52546 18.7127 2.83968L18.7127 2.01157C18.7127 1.32579 18.1368 0.769409 17.4752 0.769409H6.42818C5.721 0.769409 5.14294 1.32579 5.14294 2.01157L5.14293 2.83968C5.14293 3.52546 5.71885 4.08184 6.38049 4.08184H6.76087L6.85678 11.8971L0.577884 21.6533C-0.990767 24.091 0.817361 27.2689 3.79716 27.2689H20.2016C23.1808 27.2689 24.9916 24.0858 23.4219 21.6533ZM7.3443 17.3316L9.9239 13.3137C10.1677 13.0513 10.2802 12.7149 10.2802 12.3629L10.2837 4.08184H13.7119L13.7087 12.3629C13.7087 12.7188 13.8292 13.0487 14.0234 13.3142L16.6019 17.3316H7.3443Z" fill="#A5A6F6"/>
</svg>
