<svg width="24" height="25" viewBox="0 0 24 25" fill="none" xmlns="http://www.w3.org/2000/svg">
<path d="M23.4219 19.0728L17.0948 10.2368V3.15869H17.4752C18.185 3.15869 18.7127 2.65479 18.7127 2.03369L18.7127 1.28369C18.7127 0.662598 18.1368 0.158691 17.4752 0.158691H6.42818C5.721 0.158691 5.14294 0.662598 5.14294 1.28369L5.14293 2.03369C5.14293 2.65479 5.71885 3.15869 6.38049 3.15869H6.76087L6.85678 10.2368L0.577884 19.0728C-0.990767 21.2806 0.817361 24.1587 3.79716 24.1587H20.2016C23.1808 24.1587 24.9916 21.2759 23.4219 19.0728ZM7.3443 15.1587L9.9239 11.5198C10.1677 11.2821 10.2802 10.9774 10.2802 10.6587L10.2837 3.15869H13.7119L13.7087 10.6587C13.7087 10.981 13.8292 11.2798 14.0234 11.5203L16.6019 15.1587H7.3443Z" fill="#A5A6F6"/>
</svg>
