<svg width="34" height="34" viewBox="0 0 34 34" fill="none" xmlns="http://www.w3.org/2000/svg">
<path d="M11.3722 27.3767C11.3722 27.5174 11.2145 27.6298 11.0157 27.6298C10.7895 27.6509 10.6319 27.5384 10.6319 27.3767C10.6319 27.2361 10.7895 27.1236 10.9883 27.1236C11.194 27.1026 11.3722 27.215 11.3722 27.3767ZM9.24032 27.0604C9.19234 27.201 9.32944 27.3627 9.53508 27.4049C9.71331 27.4752 9.91895 27.4049 9.96008 27.2643C10.0012 27.1236 9.87097 26.9619 9.66532 26.8987C9.4871 26.8495 9.28831 26.9198 9.24032 27.0604ZM12.2702 26.9409C12.0714 26.9901 11.9343 27.1237 11.9548 27.2854C11.9754 27.426 12.1536 27.5174 12.3593 27.4681C12.5581 27.4189 12.6952 27.2854 12.6746 27.1447C12.654 27.0112 12.469 26.9198 12.2702 26.9409ZM16.7806 0C7.27298 0 0 7.40311 0 17.1544C0 24.9512 4.78468 31.6232 11.619 33.9714C12.4964 34.1331 12.8048 33.5776 12.8048 33.1207C12.8048 32.6848 12.7843 30.2803 12.7843 28.8039C12.7843 28.8039 7.98589 29.8585 6.97823 26.7089C6.97823 26.7089 6.19677 24.663 5.07258 24.1357C5.07258 24.1357 3.50282 23.0319 5.18226 23.053C5.18226 23.053 6.88911 23.1936 7.82823 24.8669C9.32944 27.5806 11.8452 26.8002 12.8254 26.3362C12.9831 25.2114 13.4286 24.431 13.9222 23.967C10.0903 23.5311 6.22419 22.9616 6.22419 16.1983C6.22419 14.2649 6.74516 13.2947 7.84194 12.0573C7.66371 11.6003 7.08105 9.71614 8.02016 7.28359C9.45282 6.82661 12.75 9.18183 12.75 9.18183C14.121 8.78812 15.5948 8.58424 17.0548 8.58424C18.5149 8.58424 19.9887 8.78812 21.3597 9.18183C21.3597 9.18183 24.6569 6.81958 26.0895 7.28359C27.0286 9.72317 26.446 11.6003 26.2677 12.0573C27.3645 13.3017 28.0363 14.2719 28.0363 16.1983C28.0363 22.9827 23.9988 23.524 20.1669 23.967C20.7976 24.5224 21.3323 25.5769 21.3323 27.2291C21.3323 29.5984 21.3117 32.5301 21.3117 33.1066C21.3117 33.5636 21.627 34.119 22.4976 33.9573C29.3524 31.6232 34 24.9512 34 17.1544C34 7.40311 26.2883 0 16.7806 0ZM6.6629 24.2482C6.57379 24.3185 6.59436 24.4802 6.71089 24.6138C6.82056 24.7263 6.97823 24.7755 7.06734 24.6841C7.15645 24.6138 7.13589 24.4521 7.01936 24.3185C6.90968 24.206 6.75202 24.1568 6.6629 24.2482ZM5.92258 23.6787C5.8746 23.7701 5.94315 23.8826 6.08024 23.9529C6.18992 24.0232 6.32702 24.0021 6.375 23.9037C6.42298 23.8123 6.35444 23.6998 6.21734 23.6295C6.08024 23.5873 5.97056 23.6084 5.92258 23.6787ZM8.14355 26.1816C8.03387 26.273 8.075 26.4839 8.23266 26.6175C8.39032 26.7792 8.58911 26.8002 8.67823 26.6878C8.76734 26.5964 8.72621 26.3854 8.58911 26.2519C8.43831 26.0902 8.23266 26.0691 8.14355 26.1816ZM7.3621 25.1481C7.25242 25.2184 7.25242 25.4012 7.3621 25.5629C7.47177 25.7246 7.65686 25.7949 7.74597 25.7246C7.85565 25.6332 7.85565 25.4504 7.74597 25.2887C7.65 25.127 7.47177 25.0567 7.3621 25.1481Z" fill="#E1DFDF"/>
</svg>
