<svg width="120" height="41" viewBox="0 0 120 41" fill="none" xmlns="http://www.w3.org/2000/svg">
<path d="M6.216 19.7418H8.036C8.96933 19.7418 9.716 19.5364 10.276 19.1258C10.8547 18.6964 11.144 18.0711 11.144 17.2498C11.144 16.4471 10.8733 15.8404 10.332 15.4298C9.79067 15.0004 8.96 14.7858 7.84 14.7858C7.52267 14.7858 7.23333 14.7951 6.972 14.8138C6.71067 14.8324 6.45867 14.8698 6.216 14.9258V19.7418ZM8.428 23.0458H1.988V13.2738C1.988 12.9191 2.09067 12.6391 2.296 12.4338C2.50133 12.2284 2.772 12.0698 3.108 11.9578C3.724 11.7338 4.44267 11.5751 5.264 11.4818C6.104 11.3884 6.972 11.3418 7.868 11.3418C10.388 11.3418 12.2827 11.8738 13.552 12.9378C14.8213 13.9831 15.456 15.4111 15.456 17.2218C15.456 18.3418 15.148 19.3498 14.532 20.2458C13.9347 21.1231 13.104 21.8138 12.04 22.3178C10.9947 22.8031 9.79067 23.0458 8.428 23.0458ZM7.644 22.0378L11.452 21.1418C11.8813 21.7391 12.32 22.3271 12.768 22.9058C13.2347 23.4844 13.6733 24.0444 14.084 24.5858C14.5133 25.1271 14.896 25.6311 15.232 26.0978C15.568 26.5458 15.8387 26.9284 16.044 27.2458C15.876 27.8058 15.5773 28.2444 15.148 28.5618C14.7187 28.8604 14.2333 29.0098 13.692 29.0098C13.0013 29.0098 12.4693 28.8604 12.096 28.5618C11.7413 28.2444 11.4053 27.8338 11.088 27.3298L7.644 22.0378ZM1.988 21.4498H6.244V28.7298C6.076 28.7858 5.80533 28.8324 5.432 28.8698C5.05867 28.9258 4.676 28.9538 4.284 28.9538C3.444 28.9538 2.84667 28.8044 2.492 28.5058C2.156 28.2071 1.988 27.6844 1.988 26.9378V21.4498ZM20.0716 23.9978L19.9036 21.1978L26.8476 20.1058C26.8103 19.5831 26.5863 19.0978 26.1756 18.6498C25.765 18.2018 25.1583 17.9778 24.3556 17.9778C23.5156 17.9778 22.8156 18.2671 22.2556 18.8458C21.6956 19.4058 21.397 20.2084 21.3596 21.2538L21.4996 23.1858C21.6676 24.2124 22.1063 24.9498 22.8156 25.3978C23.525 25.8271 24.365 26.0418 25.3356 26.0418C26.1196 26.0418 26.857 25.9298 27.5476 25.7058C28.2383 25.4818 28.7983 25.2484 29.2276 25.0058C29.5076 25.1738 29.7316 25.4071 29.8996 25.7058C30.0863 26.0044 30.1796 26.3218 30.1796 26.6578C30.1796 27.2178 29.9556 27.6844 29.5076 28.0578C29.0783 28.4311 28.4716 28.7111 27.6876 28.8978C26.9223 29.0844 26.045 29.1778 25.0556 29.1778C23.6183 29.1778 22.321 28.9071 21.1636 28.3658C20.025 27.8244 19.129 27.0124 18.4756 25.9298C17.8223 24.8471 17.4956 23.4938 17.4956 21.8698C17.4956 20.6751 17.6823 19.6391 18.0556 18.7618C18.4476 17.8844 18.961 17.1658 19.5956 16.6058C20.249 16.0271 20.977 15.5978 21.7796 15.3178C22.601 15.0378 23.4503 14.8978 24.3276 14.8978C25.6156 14.8978 26.7356 15.1591 27.6876 15.6818C28.6583 16.1858 29.4143 16.8764 29.9556 17.7538C30.497 18.6311 30.7676 19.6484 30.7676 20.8058C30.7676 21.3844 30.609 21.8231 30.2916 22.1218C29.9743 22.4204 29.5356 22.6071 28.9756 22.6818L20.0716 23.9978ZM46.1674 20.0498V22.6818H41.9954V20.1898C41.9954 19.4991 41.7901 18.9951 41.3794 18.6778C40.9874 18.3418 40.4647 18.1738 39.8114 18.1738C39.3447 18.1738 38.9154 18.2391 38.5234 18.3698C38.1314 18.4818 37.7767 18.6218 37.4594 18.7898V22.6818H33.3154V18.3138C33.3154 17.8471 33.4087 17.4644 33.5954 17.1658C33.8007 16.8484 34.0901 16.5684 34.4634 16.3258C35.0607 15.9151 35.8261 15.5791 36.7594 15.3178C37.6927 15.0378 38.7194 14.8978 39.8394 14.8978C41.8554 14.8978 43.4141 15.3458 44.5154 16.2418C45.6167 17.1191 46.1674 18.3884 46.1674 20.0498ZM33.3154 21.3938H37.4594V28.7298C37.2727 28.7858 37.0114 28.8324 36.6754 28.8698C36.3394 28.9258 35.9754 28.9538 35.5834 28.9538C34.7994 28.9538 34.2207 28.8138 33.8474 28.5338C33.4927 28.2538 33.3154 27.7498 33.3154 27.0218V21.3938ZM41.9954 21.3938H46.1674V28.7298C45.9807 28.7858 45.7194 28.8324 45.3834 28.8698C45.0474 28.9258 44.6834 28.9538 44.2914 28.9538C43.5074 28.9538 42.9287 28.8138 42.5554 28.5338C42.1821 28.2538 41.9954 27.7498 41.9954 27.0218V21.3938ZM58.1289 25.4258V16.9978H62.2729V25.9578C62.2729 26.4058 62.1795 26.7884 61.9929 27.1058C61.8062 27.4044 61.5075 27.6751 61.0969 27.9178C60.5929 28.2538 59.9302 28.5431 59.1089 28.7858C58.3062 29.0471 57.3729 29.1778 56.3089 29.1778C54.7595 29.1778 53.4155 28.9164 52.2769 28.3938C51.1569 27.8711 50.2889 27.0871 49.6729 26.0418C49.0755 24.9778 48.7769 23.6618 48.7769 22.0938C48.7769 20.4511 49.0849 19.1071 49.7009 18.0618C50.3355 16.9978 51.1849 16.2044 52.2489 15.6818C53.3129 15.1591 54.4889 14.8978 55.7769 14.8978C56.4489 14.8978 57.0462 14.9724 57.5689 15.1218C58.0915 15.2711 58.5209 15.4484 58.8569 15.6538V19.0698C58.5955 18.8458 58.2502 18.6404 57.8209 18.4538C57.3915 18.2671 56.8969 18.1738 56.3369 18.1738C55.6835 18.1738 55.1049 18.3138 54.6009 18.5938C54.0969 18.8738 53.7049 19.3031 53.4249 19.8818C53.1449 20.4604 53.0049 21.1978 53.0049 22.0938C53.0049 23.4004 53.2942 24.3618 53.8729 24.9778C54.4702 25.5938 55.2729 25.9018 56.2809 25.9018C56.6915 25.9018 57.0555 25.8551 57.3729 25.7618C57.6902 25.6498 57.9422 25.5378 58.1289 25.4258ZM62.2729 17.8098L58.1289 17.8378V10.5298C58.2969 10.4738 58.5489 10.4178 58.8849 10.3618C59.2209 10.3058 59.5849 10.2778 59.9769 10.2778C60.7982 10.2778 61.3862 10.4178 61.7409 10.6978C62.0955 10.9778 62.2729 11.4911 62.2729 12.2378V17.8098ZM67.513 23.9978L67.345 21.1978L74.289 20.1058C74.2517 19.5831 74.0277 19.0978 73.617 18.6498C73.2064 18.2018 72.5997 17.9778 71.797 17.9778C70.957 17.9778 70.257 18.2671 69.697 18.8458C69.137 19.4058 68.8384 20.2084 68.801 21.2538L68.941 23.1858C69.109 24.2124 69.5477 24.9498 70.257 25.3978C70.9664 25.8271 71.8064 26.0418 72.777 26.0418C73.561 26.0418 74.2984 25.9298 74.989 25.7058C75.6797 25.4818 76.2397 25.2484 76.669 25.0058C76.949 25.1738 77.173 25.4071 77.341 25.7058C77.5277 26.0044 77.621 26.3218 77.621 26.6578C77.621 27.2178 77.397 27.6844 76.949 28.0578C76.5197 28.4311 75.913 28.7111 75.129 28.8978C74.3637 29.0844 73.4864 29.1778 72.497 29.1778C71.0597 29.1778 69.7624 28.9071 68.605 28.3658C67.4664 27.8244 66.5704 27.0124 65.917 25.9298C65.2637 24.8471 64.937 23.4938 64.937 21.8698C64.937 20.6751 65.1237 19.6391 65.497 18.7618C65.889 17.8844 66.4024 17.1658 67.037 16.6058C67.6904 16.0271 68.4184 15.5978 69.221 15.3178C70.0424 15.0378 70.8917 14.8978 71.769 14.8978C73.057 14.8978 74.177 15.1591 75.129 15.6818C76.0997 16.1858 76.8557 16.8764 77.397 17.7538C77.9384 18.6311 78.209 19.6484 78.209 20.8058C78.209 21.3844 78.0504 21.8231 77.733 22.1218C77.4157 22.4204 76.977 22.6071 76.417 22.6818L67.513 23.9978ZM80.8968 21.3658L85.0688 21.4498V28.7298C84.8821 28.7858 84.6208 28.8324 84.2848 28.8698C83.9488 28.9258 83.5848 28.9538 83.1928 28.9538C82.4088 28.9538 81.8301 28.8138 81.4568 28.5338C81.0835 28.2538 80.8968 27.7498 80.8968 27.0218V21.3658ZM85.0688 23.6058L80.8968 23.5218V10.5298C81.0835 10.4738 81.3448 10.4178 81.6808 10.3618C82.0168 10.3058 82.3808 10.2778 82.7728 10.2778C83.5755 10.2778 84.1541 10.4178 84.5088 10.6978C84.8821 10.9778 85.0688 11.4911 85.0688 12.2378V23.6058ZM88.6351 21.3658L92.8071 21.4498V28.7298C92.6204 28.7858 92.3591 28.8324 92.0231 28.8698C91.6871 28.9258 91.3231 28.9538 90.9311 28.9538C90.1471 28.9538 89.5684 28.8138 89.1951 28.5338C88.8218 28.2538 88.6351 27.7498 88.6351 27.0218V21.3658ZM92.8071 23.6058L88.6351 23.5218V10.5298C88.8218 10.4738 89.0831 10.4178 89.4191 10.3618C89.7551 10.3058 90.1191 10.2778 90.5111 10.2778C91.3138 10.2778 91.8924 10.4178 92.2471 10.6978C92.6204 10.9778 92.8071 11.4911 92.8071 12.2378V23.6058Z" fill="#F2F2F2"/>
<path d="M119.639 25.8213L115.684 20.2988V15.875H115.922C116.366 15.875 116.695 15.5601 116.695 15.1719L116.695 14.7031C116.695 14.3149 116.336 14 115.922 14H109.018C108.576 14 108.214 14.3149 108.214 14.7031L108.214 15.1719C108.214 15.5601 108.574 15.875 108.988 15.875H109.226L109.285 20.2988L105.361 25.8213C104.381 27.2012 105.511 29 107.373 29H117.626C119.488 29 120.62 27.1982 119.639 25.8213ZM109.59 23.375L111.202 21.1007C111.355 20.9521 111.425 20.7617 111.425 20.5625L111.427 15.875H113.57L113.568 20.5625C113.568 20.7639 113.643 20.9507 113.765 21.101L115.376 23.375H109.59Z" fill="#A5A6F6"/>
</svg>
