<svg width="34" height="34" viewBox="0 0 34 34" fill="none" xmlns="http://www.w3.org/2000/svg">
<path d="M30.3571 0H3.64286C1.6317 0 0 1.6317 0 3.64286V30.3571C0 32.3683 1.6317 34 3.64286 34H30.3571C32.3683 34 34 32.3683 34 30.3571V3.64286C34 1.6317 32.3683 0 30.3571 0ZM26.646 12.0518C26.6612 12.2643 26.6612 12.4844 26.6612 12.6969C26.6612 19.2768 21.6522 26.8585 12.4996 26.8585C9.67634 26.8585 7.05804 26.0388 4.85714 24.6272C5.25938 24.6728 5.64643 24.6879 6.05625 24.6879C8.38616 24.6879 10.5263 23.8987 12.2339 22.5629C10.0482 22.5174 8.21161 21.083 7.5817 19.1098C8.34821 19.2237 9.03884 19.2237 9.82813 19.0188C7.55134 18.5558 5.84375 16.5522 5.84375 14.1312V14.0705C6.50402 14.4424 7.27813 14.6701 8.09018 14.7004C7.40747 14.2463 6.8478 13.6303 6.46112 12.9072C6.07443 12.1842 5.87276 11.3766 5.87411 10.5567C5.87411 9.6308 6.11696 8.7808 6.54955 8.04464C9.00089 11.0652 12.6817 13.0384 16.8103 13.2509C16.1045 9.87366 18.6317 7.13393 21.6674 7.13393C23.1018 7.13393 24.392 7.73348 25.3027 8.70491C26.4259 8.49241 27.5036 8.075 28.4598 7.5058C28.0879 8.65937 27.3063 9.6308 26.2741 10.2455C27.2759 10.1393 28.2473 9.85848 29.1429 9.47143C28.4674 10.4656 27.6174 11.346 26.646 12.0518Z" fill="#E5E5E5"/>
</svg>
